<svg width="825" height="439" viewBox="0 0 825 439" fill="none" xmlns="http://www.w3.org/2000/svg">
<g clip-path="url(#clip0_2438_150)">
<path d="M819.468 437.184H360.201C358.786 437.182 357.429 436.619 356.429 435.619C355.428 434.618 354.865 433.261 354.863 431.846V5.338C354.865 3.92284 355.428 2.56617 356.429 1.56551C357.429 0.564838 358.786 0.00185213 360.201 0H819.468C820.883 0.00185213 822.24 0.564838 823.241 1.56551C824.241 2.56617 824.804 3.92284 824.806 5.338V431.845C824.805 433.26 824.242 434.617 823.241 435.618C822.24 436.619 820.883 437.182 819.468 437.184ZM360.201 2.131C359.353 2.13285 358.54 2.47058 357.941 3.0703C357.341 3.67001 357.003 4.48287 357.001 5.33099V431.845C357.003 432.693 357.341 433.506 357.941 434.106C358.54 434.705 359.353 435.043 360.201 435.045H819.468C820.316 435.043 821.129 434.706 821.729 434.106C822.329 433.506 822.667 432.693 822.668 431.845V5.338C822.666 4.48987 822.329 3.67702 821.729 3.0773C821.129 2.47759 820.316 2.13985 819.468 2.138L360.201 2.131Z" fill="#EEA886"/>
<path d="M577.214 110.828C576.253 110.828 575.331 111.21 574.651 111.89C573.972 112.569 573.59 113.491 573.59 114.452C573.59 115.413 573.972 116.335 574.651 117.015C575.331 117.694 576.253 118.076 577.214 118.076H776.07C777.031 118.076 777.953 117.694 778.632 117.015C779.312 116.335 779.694 115.413 779.694 114.452C779.694 113.491 779.312 112.569 778.632 111.89C777.953 111.21 777.031 110.828 776.07 110.828H577.214Z" fill="#EEA886"/>
<path d="M577.214 132.574C576.253 132.574 575.331 132.956 574.651 133.636C573.972 134.315 573.59 135.237 573.59 136.198C573.59 137.159 573.972 138.081 574.651 138.761C575.331 139.44 576.253 139.822 577.214 139.822H678.734C679.695 139.822 680.617 139.44 681.296 138.761C681.976 138.081 682.358 137.159 682.358 136.198C682.358 135.237 681.976 134.315 681.296 133.636C680.617 132.956 679.695 132.574 678.734 132.574H577.214Z" fill="#EEA886"/>
<path d="M403.409 237.828C402.448 237.828 401.526 238.21 400.847 238.89C400.167 239.569 399.785 240.491 399.785 241.452C399.785 242.413 400.167 243.335 400.847 244.015C401.526 244.694 402.448 245.076 403.409 245.076H776.265C777.226 245.076 778.148 244.694 778.828 244.015C779.507 243.335 779.889 242.413 779.889 241.452C779.889 240.491 779.507 239.569 778.828 238.89C778.148 238.21 777.226 237.828 776.265 237.828H403.409Z" fill="#EEA886"/>
<path d="M403.409 259.574C402.448 259.574 401.526 259.956 400.847 260.636C400.167 261.315 399.785 262.237 399.785 263.198C399.785 264.159 400.167 265.081 400.847 265.761C401.526 266.44 402.448 266.822 403.409 266.822H678.929C679.89 266.822 680.812 266.44 681.492 265.761C682.171 265.081 682.553 264.159 682.553 263.198C682.553 262.237 682.171 261.315 681.492 260.636C680.812 259.956 679.89 259.574 678.929 259.574H403.409Z" fill="#EEA886"/>
<path d="M403.409 280.828C402.448 280.828 401.526 281.21 400.847 281.89C400.167 282.569 399.785 283.491 399.785 284.452C399.785 285.413 400.167 286.335 400.847 287.015C401.526 287.694 402.448 288.076 403.409 288.076H776.265C777.226 288.076 778.148 287.694 778.828 287.015C779.507 286.335 779.889 285.413 779.889 284.452C779.889 283.491 779.507 282.569 778.828 281.89C778.148 281.21 777.226 280.828 776.265 280.828H403.409Z" fill="#EEA886"/>
<path d="M403.409 302.574C402.448 302.574 401.526 302.956 400.847 303.636C400.167 304.315 399.785 305.237 399.785 306.198C399.785 307.159 400.167 308.081 400.847 308.761C401.526 309.44 402.448 309.822 403.409 309.822H678.929C679.89 309.822 680.812 309.44 681.492 308.761C682.171 308.081 682.553 307.159 682.553 306.198C682.553 305.237 682.171 304.315 681.492 303.636C680.812 302.956 679.89 302.574 678.929 302.574H403.409Z" fill="#EEA886"/>
<path d="M526.958 187.183H238.69C237.274 187.181 235.918 186.618 234.917 185.618C233.916 184.617 233.353 183.26 233.352 181.845V55.338C233.353 53.9227 233.916 52.5659 234.917 51.5652C235.918 50.5645 237.274 50.0016 238.69 50H526.958C528.373 50.0016 529.73 50.5645 530.73 51.5652C531.731 52.5659 532.294 53.9227 532.296 55.338V181.845C532.294 183.26 531.731 184.617 530.73 185.618C529.73 186.618 528.373 187.181 526.958 187.183Z" fill="#7A3B12"/>
<path d="M773.958 387.183H664.69C663.274 387.181 661.917 386.619 660.917 385.618C659.916 384.617 659.353 383.26 659.352 381.845V364.338C659.353 362.923 659.916 361.566 660.917 360.565C661.917 359.565 663.274 359.002 664.69 359H773.958C775.373 359.002 776.73 359.565 777.73 360.565C778.731 361.566 779.294 362.923 779.296 364.338V381.845C779.294 383.26 778.731 384.617 777.73 385.618C776.73 386.619 775.373 387.181 773.958 387.183Z" fill="#7A3B12"/>
<path d="M126.437 214.108C121.728 210.593 120.346 204.024 123.35 199.436C123.649 198.986 123.986 198.564 124.359 198.174L124.66 104.715L138.552 107.308L139.163 199.228C142.328 202.9 142.967 208.25 140.403 212.165C137.399 216.753 131.146 217.623 126.437 214.108Z" fill="#FFB8B8"/>
<path d="M198.682 423.302L213.004 423.301L219.818 368.059L198.68 368.06L198.682 423.302Z" fill="#FFB8B8"/>
<path d="M195.031 418.626L223.237 418.625H223.238C228.005 418.625 232.577 420.519 235.948 423.89C239.318 427.261 241.212 431.832 241.213 436.599V437.184L195.032 437.185L195.031 418.626Z" fill="#2F2E41"/>
<path d="M65.5059 423.302L79.8289 423.301L86.6419 368.059L65.5039 368.06L65.5059 423.302Z" fill="#FFB8B8"/>
<path d="M61.8516 418.626L90.0571 418.625H90.0582C94.8252 418.625 99.397 420.519 102.768 423.89C106.139 427.261 108.033 431.832 108.033 436.599V437.184L61.8524 437.185L61.8516 418.626Z" fill="#2F2E41"/>
<path d="M197.847 407.873L196.647 400.671C195.414 400.239 194.366 399.398 193.678 398.288C192.389 396.251 192.184 393.385 193.068 389.767L183.404 308.16L132.953 255.816L100.588 333.88L87.776 395.655V404.58L62.1954 407.865L63.3595 399.452C62.3809 399.033 61.5655 398.307 61.0367 397.383C59.567 394.936 59.5871 391.145 61.0963 386.115L61.1617 385.896L61.0782 385.145C61.0196 384.618 61.4042 334.16 76.4042 309.16L91.427 233.258C91.0368 232.189 89.1108 225.965 92.643 215.448C96.1291 205.07 105.879 188.35 132.529 167.637L132.621 167.566L132.735 167.542C133.03 167.481 162.424 161.637 177.626 181.517L177.729 181.651V181.821C177.729 183.05 177.702 211.651 175.441 217.997L211.514 284.325C212.216 285.069 218.522 292.352 216.282 311.499L222.11 376.767C222.777 378.04 228.809 390.028 222.16 394.774L223.352 403.015L197.847 407.873Z" fill="#2F2E41"/>
<path d="M137.502 133.601C130.729 133.601 121.728 131.207 116.218 120.173L116.109 119.956L129.683 91.182C131.442 87.4541 134.59 84.5625 138.453 83.126C142.316 81.6894 146.589 81.8218 150.356 83.495C154.123 85.1681 157.085 88.2492 158.609 92.0788C160.134 95.9084 160.099 100.183 158.512 103.987L146.776 132.12L146.572 132.196C143.641 133.137 140.58 133.611 137.502 133.601Z" fill="#7A3B12"/>
<path d="M175.101 190.65L132.309 170.443L138.191 98.681L148.914 85.5745L150.992 85.1297C160.539 83.0857 170.459 83.6351 179.722 86.721L179.926 86.7889L197.54 124.366C197.651 124.553 210.353 146.98 192.793 158.805L175.101 190.65Z" fill="#7A3B12"/>
<path d="M233.93 167.778C233.419 167.99 232.926 168.243 232.455 168.533L187.363 147.907L186.206 135.916L167.882 135.297L167.867 156.723C167.866 158.454 168.426 160.138 169.464 161.524C170.502 162.909 171.961 163.921 173.622 164.406L227.77 180.231C228.327 182.289 229.496 184.128 231.123 185.505C232.75 186.881 234.758 187.73 236.879 187.938C239 188.146 241.134 187.703 242.998 186.668C244.861 185.634 246.365 184.056 247.31 182.146C248.255 180.235 248.596 178.082 248.287 175.973C247.979 173.865 247.036 171.9 245.583 170.34C244.131 168.78 242.238 167.699 240.156 167.242C238.075 166.784 235.903 166.971 233.93 167.778Z" fill="#FFB8B8"/>
<path d="M178.776 141.033C173.638 141.033 167.839 139.256 162.273 133.69L162.102 133.519L165.862 101.927C166.35 97.8342 168.419 94.0944 171.629 91.508C174.838 88.9216 178.932 87.694 183.036 88.0879C187.139 88.4817 190.924 90.4658 193.583 93.6155C196.242 96.7652 197.563 100.83 197.262 104.941L195.042 135.343L194.872 135.479C194.763 135.566 187.787 141.033 178.776 141.033Z" fill="#7A3B12"/>
<path d="M192.526 60.5755C200.127 46.6709 195.017 29.2373 181.112 21.6364C167.207 14.0354 149.774 19.1456 142.173 33.0501C134.572 46.9547 139.682 64.3883 153.587 71.9893C167.491 79.5902 184.925 74.4801 192.526 60.5755Z" fill="#FFB8B8"/>
<path d="M196.551 31.6098C195.127 23.3289 188.479 16.4642 180.56 13.6554C172.641 10.8466 163.711 11.7601 155.956 14.9946C154.664 15.5357 153.402 16.1428 152.173 16.8136C149.338 11.4108 142.389 8.27721 136.033 8.61541C128.354 9.02398 121.42 13.0869 114.751 16.9161C108.082 20.7452 100.926 24.5551 93.2375 24.3768C79.3445 24.0547 69.0085 11.1743 55.6492 7.34638C49.7021 5.64241 43.3741 5.81478 37.5285 7.83997C31.683 9.86517 26.6047 13.6445 22.9864 18.6625C19.3681 23.6804 17.3861 29.6925 17.3108 35.8784C17.2355 42.0643 19.0706 48.1229 22.5656 53.2274C28.2658 43.0122 41.6521 39.562 53.2673 40.9526C64.8821 42.3433 75.7072 47.4346 87.0862 50.1465C98.4655 52.8585 111.644 52.7421 120.458 45.0513C125.458 40.6889 128.394 34.4537 132.746 29.4456C135.691 26.0581 139.882 23.1978 144.165 22.5245C139.946 26.3234 136.726 31.1004 134.786 36.4356C131.352 46.1924 133.188 57.9074 140.312 65.4067C147.949 73.4468 159.936 75.5896 171.025 75.4595L171.257 75.2238C167.862 70.142 165.182 63.0956 168.92 58.2605C172.61 53.4877 179.887 54.1909 185.538 52.079C193.409 49.1375 197.974 39.8909 196.551 31.6098Z" fill="#2F2E41"/>
<path d="M274 438.316H1C0.734784 438.316 0.480429 438.211 0.292892 438.023C0.105356 437.836 0 437.582 0 437.316C0 437.051 0.105356 436.797 0.292892 436.609C0.480429 436.422 0.734784 436.316 1 436.316H274C274.265 436.316 274.52 436.422 274.707 436.609C274.895 436.797 275 437.051 275 437.316C275 437.582 274.895 437.836 274.707 438.023C274.52 438.211 274.265 438.316 274 438.316Z" fill="#EEA886"/>
<path d="M369.891 94.3711C368.639 94.3751 367.626 96.0008 367.629 98.0023C367.631 99.9981 368.643 101.615 369.891 101.619H476.761C478.013 101.615 479.025 99.9894 479.023 97.9879C479.02 95.992 478.009 94.375 476.761 94.3711H369.891Z" fill="white"/>
<path d="M369.891 115.371C368.639 115.375 367.626 117.001 367.629 119.002C367.631 120.998 368.643 122.615 369.891 122.619H476.761C478.013 122.615 479.025 120.989 479.023 118.988C479.02 116.992 478.009 115.375 476.761 115.371H369.891Z" fill="white"/>
<path d="M369.891 136.117C368.639 136.121 367.626 137.747 367.629 139.748C367.631 141.744 368.643 143.361 369.891 143.365H415.877C417.129 143.361 418.142 141.735 418.14 139.734C418.137 137.738 417.126 136.121 415.877 136.117H369.891Z" fill="white"/>
<path d="M315.629 147.594C331.645 147.594 344.629 134.61 344.629 118.594C344.629 102.577 331.645 89.5938 315.629 89.5938C299.613 89.5938 286.629 102.577 286.629 118.594C286.629 134.61 299.613 147.594 315.629 147.594Z" fill="white"/>
</g>
<defs>
<clipPath id="clip0_2438_150">
<rect width="824.808" height="438.316" fill="white"/>
</clipPath>
</defs>
</svg>
