<svg width="800" height="800" viewBox="0 0 800 800" fill="none" xmlns="http://www.w3.org/2000/svg">
<rect width="800" height="800" fill="#7A3B12"/>
<path d="M587.091 200H212.909C196.224 200 180.223 206.628 168.426 218.426C156.628 230.223 150 246.224 150 262.909V536.437C150 553.121 156.628 569.122 168.426 580.92C180.223 592.718 196.224 599.346 212.909 599.346H587.091C603.776 599.346 619.777 592.718 631.574 580.92C643.372 569.122 650 553.121 650 536.437V262.909C650 246.224 643.372 230.223 631.574 218.426C619.777 206.628 603.776 200 587.091 200ZM212.909 225.164H587.091C596.616 225.136 605.793 228.737 612.758 235.234C619.723 241.731 623.952 250.637 624.585 260.141C562.431 293.357 500.025 326.321 437.62 359.537C429.177 364.828 420.245 369.294 410.946 372.874C403.646 374.314 396.123 374.184 388.878 372.492C381.632 370.8 374.83 367.585 368.923 363.06C333.191 344.187 297.458 325.063 261.978 306.19C233.291 291.092 204.102 275.742 175.415 260.393C175.999 250.848 180.204 241.887 187.173 235.34C194.141 228.792 203.347 225.152 212.909 225.164ZM624.836 536.437C624.836 546.448 620.86 556.048 613.781 563.127C606.702 570.206 597.102 574.182 587.091 574.182H212.909C202.898 574.182 193.298 570.206 186.219 563.127C179.14 556.048 175.164 546.448 175.164 536.437V288.953C234.55 320.156 293.684 351.862 353.07 383.317C363.68 389.822 375.102 394.898 387.041 398.415C404.514 401.256 422.422 397.584 437.368 388.098C473.855 368.973 510.091 349.597 546.578 330.473C572.748 316.381 598.666 302.793 624.836 288.953V536.437Z" fill="white"/>
</svg>
