<svg width="800" height="800" viewBox="0 0 800 800" fill="none" xmlns="http://www.w3.org/2000/svg">
<rect width="800" height="800" fill="#7A3B12"/>
<path d="M399.886 642.886C277.409 642.886 153 616.613 153 566.386C153 521.568 248.818 503.022 289.772 497.227H291.318C297.113 497.227 302.136 501.477 302.909 507.272C303.295 510.363 302.522 513.454 300.591 515.772C298.659 518.09 295.954 520.022 292.863 520.408C207.477 532.772 175.795 555.181 175.795 566.772C175.795 588.408 263.113 620.09 399.5 620.09C535.886 620.09 623.204 588.408 623.204 566.772C623.204 555.181 591.136 532.772 504.977 520.408C501.886 520.022 499.181 518.477 497.249 515.772C495.318 513.454 494.545 510.363 494.931 507.272C495.704 501.477 500.727 497.227 506.522 497.227H508.068C549.408 503.022 645.999 521.568 645.999 566.386C646.385 616.227 522.363 642.886 399.886 642.886ZM391.772 560.977C385.977 555.568 252.295 429.227 252.295 305.204C252.295 224.068 318.363 158 399.5 158C480.636 158 546.704 224.068 546.704 305.204C546.704 425.75 413.022 555.181 407.227 560.59L399.5 568.318L391.772 560.977ZM399.886 181.182C331.5 181.182 275.863 236.818 275.863 305.204C275.863 402.181 370.522 506.113 399.886 535.863C429.636 505.34 524.295 399.477 524.295 305.204C523.908 237.204 468.272 181.182 399.886 181.182ZM399.886 370.886C361.25 370.886 329.954 339.591 329.954 300.954C329.954 262.318 361.25 231.023 399.886 231.023C438.522 231.023 469.818 262.318 469.818 300.954C469.818 339.591 438.522 370.886 399.886 370.886ZM399.886 254.204C374 254.204 353.136 275.068 353.136 300.954C353.136 326.841 374 347.704 399.886 347.704C425.772 347.704 446.636 326.841 446.636 300.954C446.636 275.068 425.386 254.204 399.886 254.204Z" fill="white"/>
</svg>
