<svg width="800" height="800" viewBox="0 0 800 800" fill="none" xmlns="http://www.w3.org/2000/svg">
<rect width="800" height="800" fill="#7A3B12"/>
<path d="M521.875 663H278.125C262.619 663 250 650.381 250 634.875V616.125C250 610.95 254.2 606.75 259.375 606.75C264.55 606.75 268.75 610.95 268.75 616.125V634.875C268.75 640.05 272.969 644.25 278.125 644.25H521.875C527.031 644.25 531.25 640.05 531.25 634.875V166.125C531.25 160.95 527.031 156.75 521.875 156.75H278.125C272.969 156.75 268.75 160.95 268.75 166.125V541.125C268.75 546.3 272.969 550.5 278.125 550.5H484.375C489.55 550.5 493.75 554.7 493.75 559.875C493.75 565.05 489.55 569.25 484.375 569.25H278.125C262.619 569.25 250 556.631 250 541.125V166.125C250 150.619 262.619 138 278.125 138H521.875C537.381 138 550 150.619 550 166.125V634.875C550 650.381 537.381 663 521.875 663Z" fill="white"/>
<path d="M400 616.125C405.178 616.125 409.375 611.928 409.375 606.75C409.375 601.572 405.178 597.375 400 597.375C394.822 597.375 390.625 601.572 390.625 606.75C390.625 611.928 394.822 616.125 400 616.125Z" fill="white"/>
<path d="M521.875 663H278.125C262.619 663 250 650.381 250 634.875V616.125C250 610.95 254.2 606.75 259.375 606.75C264.55 606.75 268.75 610.95 268.75 616.125V634.875C268.75 640.05 272.969 644.25 278.125 644.25H521.875C527.031 644.25 531.25 640.05 531.25 634.875V166.125C531.25 160.95 527.031 156.75 521.875 156.75H278.125C272.969 156.75 268.75 160.95 268.75 166.125V541.125C268.75 546.3 272.969 550.5 278.125 550.5H484.375C489.55 550.5 493.75 554.7 493.75 559.875C493.75 565.05 489.55 569.25 484.375 569.25H278.125C262.619 569.25 250 556.631 250 541.125V166.125C250 150.619 262.619 138 278.125 138H521.875C537.381 138 550 150.619 550 166.125V634.875C550 650.381 537.381 663 521.875 663Z" fill="white"/>
<path d="M400 616.125C405.178 616.125 409.375 611.928 409.375 606.75C409.375 601.572 405.178 597.375 400 597.375C394.822 597.375 390.625 601.572 390.625 606.75C390.625 611.928 394.822 616.125 400 616.125Z" fill="white"/>
</svg>
