<svg width="298" height="214" viewBox="0 0 298 214" fill="none" xmlns="http://www.w3.org/2000/svg">
<rect width="298" height="214" fill="white"/>
<path d="M96.9906 184.751C106.259 179.436 112.536 171.189 114.899 162.484C116.777 155.605 116.201 148.47 112.713 142.298L144.811 123.938C167.478 135.301 218.296 160.808 226.307 165.383C236.669 171.313 249 160.703 249 160.703L164.748 112.53L249 64.3689C249 64.3689 236.669 53.7654 226.314 59.6889C218.296 64.2707 167.484 89.7845 144.818 101.134L112.719 82.781C116.208 76.6087 116.784 69.4612 114.905 62.5951C112.542 53.8767 106.265 45.6361 96.9971 40.3212C80.3261 30.7781 60.33 34.4239 52.312 48.4309C48.7447 54.6425 48.1753 61.8358 50.0538 68.7673C52.4298 77.4661 58.7068 85.7264 67.9554 91.0347C72.0397 93.3583 76.3138 94.8964 80.5617 95.6819H80.5552C80.5879 95.6884 80.6206 95.6884 80.6534 95.7211C81.0068 95.767 81.3603 95.8324 81.7464 95.8651C108.183 99.8054 121.686 107.254 128.245 112.523C121.686 117.805 108.19 125.26 81.7464 129.194C81.3603 129.233 81.0068 129.299 80.6534 129.332C80.6206 129.358 80.5879 129.358 80.5552 129.371H80.5617C76.3203 130.163 72.0397 131.694 67.9554 134.011C58.7068 139.326 52.4298 147.587 50.0538 156.292C48.1753 163.223 48.7447 170.417 52.312 176.641C60.33 190.655 80.3195 194.288 96.9906 184.751ZM75.7574 77.4072C70.5015 74.3964 66.5416 69.6248 65.1867 64.6569C64.5845 62.4445 64.218 59.198 65.9263 56.2199C69.559 49.8709 80.2345 48.8302 89.2016 53.9552C94.5164 57.0184 98.3847 61.6591 99.7658 66.7187C100.361 68.9113 100.721 72.1578 99.0262 75.1491C95.3804 81.5046 84.7311 82.5388 75.7574 77.4072ZM65.9263 168.846C64.2114 165.868 64.5845 162.634 65.1867 160.422C66.5416 155.448 70.5015 150.683 75.7574 147.665C84.7311 142.54 95.3804 143.574 99.0262 149.93C100.728 152.921 100.361 156.168 99.7658 158.367C98.3847 163.413 94.5164 168.067 89.2016 171.111C80.2345 176.236 69.559 175.201 65.9263 168.846Z" fill="#7A3B12"/>
</svg>
