<svg width="552" height="412" viewBox="0 0 552 412" fill="none" xmlns="http://www.w3.org/2000/svg">
<path d="M41.634 377.738C54.0624 400.787 80.44 410.681 80.44 410.681C80.44 410.681 86.6671 383.206 74.2387 360.157C61.8103 337.108 35.4327 327.213 35.4327 327.213C35.4327 327.213 29.2056 354.689 41.634 377.738Z" fill="#7A3B12"/>
<path d="M50.1765 370.155C72.6149 383.655 81.2567 410.469 81.2567 410.469C81.2567 410.469 53.5186 415.396 31.0802 401.896C8.64174 388.396 0 361.582 0 361.582C0 361.582 27.7381 356.655 50.1765 370.155Z" fill="#7A3B12"/>
<path d="M362.06 367.184H125.274V365.481H360.356V282.861H145.18L134.727 261.084L136.263 260.347L146.252 281.157H362.06V367.184Z" fill="#7A3B12"/>
<path d="M156.788 408.92C166.667 408.92 174.675 400.912 174.675 391.033C174.675 381.155 166.667 373.146 156.788 373.146C146.91 373.146 138.902 381.155 138.902 391.033C138.902 400.912 146.91 408.92 156.788 408.92Z" fill="black"/>
<path d="M333.101 408.92C342.979 408.92 350.987 400.912 350.987 391.033C350.987 381.155 342.979 373.146 333.101 373.146C323.222 373.146 315.214 381.155 315.214 391.033C315.214 400.912 323.222 408.92 333.101 408.92Z" fill="black"/>
<path d="M540.927 22.2258C547.043 22.2258 552 17.2684 552 11.1531C552 5.03777 547.043 0.0803223 540.927 0.0803223C534.812 0.0803223 529.854 5.03777 529.854 11.1531C529.854 17.2684 534.812 22.2258 540.927 22.2258Z" fill="black"/>
<path d="M387.385 254.753H121.237L63.6484 66.5166H446.693L446.344 67.6241L387.385 254.753ZM122.497 253.05H386.136L444.37 68.2201H65.9508L122.497 253.05Z" fill="#7A3B12"/>
<path d="M366.61 244.958H132.842L82.26 78.0151H418.701L418.395 78.9981L366.61 244.958Z" fill="#D9D9D9"/>
<path d="M451.465 49.7L449.818 49.263L461.059 6.89404H526.448V8.59802H462.37L451.465 49.7Z" fill="#7A3B12"/>
<path d="M427.552 123.584H82.2584V125.287H427.552V123.584Z" fill="#7A3B12"/>
<path d="M407.778 186.344H101.459V188.047H407.778V186.344Z" fill="#7A3B12"/>
<path d="M256.017 67.3684H254.314V253.901H256.017V67.3684Z" fill="#7A3B12"/>
<path d="M332.286 67.3149L320.057 253.843L321.758 253.955L333.986 67.4264L332.286 67.3149Z" fill="#7A3B12"/>
<path d="M178.081 67.313L176.38 67.4238L188.538 253.957L190.238 253.846L178.081 67.313Z" fill="#7A3B12"/>
<path d="M552 410H0V409H552V410Z" fill="#7A3B12"/>
</svg>
